<svg xmlns="http://www.w3.org/2000/svg" width="512" height="512" viewBox="0 0 512 512"><defs><clipPath id="pm"><rect width="512" height="512" rx="112"></rect></clipPath></defs><rect width="512" height="512" rx="112" fill="#F4EBDD"></rect><g clip-path="url(#pm)"><g transform="translate(256 168) rotate(-12) scale(1.55) translate(-256 -246)"><polygon points="240,222 196,212 150,204 108,196 50,190 96,206 52,204 98,216 58,218 102,226 66,232 108,234 78,246 118,242 94,258 130,248 170,254 210,252 242,246" fill="#E2D1B6"></polygon><polygon points="272,222 316,212 362,204 404,196 462,190 416,206 460,204 414,216 454,218 410,226 446,232 404,234 434,246 394,242 418,258 382,248 342,254 302,252 270,246" fill="#E2D1B6"></polygon><polygon points="246,200 266,200 278,240 268,296 256,312 244,296 234,240" fill="#E2D1B6"></polygon><polygon points="242,300 256,330 270,300" fill="#E2D1B6"></polygon><polygon points="249,180 263,180 267,200 245,200" fill="#E2D1B6"></polygon></g></g><path d="M192.9122093023256 212.67441860465118V215.24418604651163Q192.9122093023256 227.89534883720933 187.37732558139538 238.17441860465118Q181.84244186046516 248.45348837209303 171.9587209302326 254.28488372093022Q162.07500000000005 260.1162790697674 149.42383720930235 260.1162790697674H116.80755813953492V304.0H73.12151162790701V168.0H149.42383720930235Q162.07500000000005 168.0 171.9587209302326 173.83139534883722Q181.84244186046516 179.66279069767444 187.37732558139538 189.84302325581396Q192.9122093023256 200.02325581395348 192.9122093023256 212.67441860465118ZM116.80755813953492 228.2906976744186H134.7959302325582Q141.71453488372094 228.2906976744186 145.17383720930235 224.7325581395349Q148.63313953488375 221.17441860465118 148.63313953488375 215.04651162790697V213.46511627906978Q148.63313953488375 207.13953488372096 145.17383720930235 203.68023255813955Q141.71453488372094 200.22093023255815 134.7959302325582 200.22093023255815H116.80755813953492Z" fill="#4A1C22"></path><path d="M260.7540697674419 304.0 255.021511627907 284.8255813953488H207.38197674418606L201.64941860465117 304.0H156.97500000000002L206.59127906976747 168.0H257.39360465116283L307.00988372093025 304.0ZM216.47500000000002 254.38372093023256H245.92848837209306L231.69593023255817 205.95348837209303H230.90523255813955Z" fill="#4A1C22" stroke="#F4EBDD" stroke-width="12" stroke-linejoin="round" paint-order="stroke"></path><path d="M438.87848837209305 236.0Q438.87848837209305 270.3953488372093 419.70406976744187 288.3837209302326Q400.52965116279074 306.3720930232558 365.3436046511628 306.3720930232558Q330.1575581395349 306.3720930232558 311.0819767441861 288.48255813953483Q292.00639534883726 270.59302325581393 292.00639534883726 236.0Q292.00639534883726 201.40697674418607 311.0819767441861 183.5174418604651Q330.1575581395349 165.62790697674419 365.3436046511628 165.62790697674419Q400.52965116279074 165.62790697674419 419.70406976744187 183.61627906976744Q438.87848837209305 201.6046511627907 438.87848837209305 236.0ZM336.6808139534884 229.67441860465118V242.32558139534885Q336.6808139534884 256.75581395348837 343.9947674418605 265.25581395348837Q351.3087209302326 273.75581395348837 365.3436046511628 273.75581395348837Q379.37848837209305 273.75581395348837 386.7912790697675 265.25581395348837Q394.20406976744187 256.75581395348837 394.20406976744187 242.32558139534885V229.67441860465118Q394.20406976744187 215.24418604651163 386.7912790697675 206.74418604651163Q379.37848837209305 198.24418604651163 365.3436046511628 198.24418604651163Q351.3087209302326 198.24418604651163 343.9947674418605 206.74418604651163Q336.6808139534884 215.24418604651163 336.6808139534884 229.67441860465118Z" fill="#4A1C22" stroke="#F4EBDD" stroke-width="12" stroke-linejoin="round" paint-order="stroke"></path><rect x="146" y="330" width="220" height="3" fill="#4A1C22"></rect><path d="M83.48502906976745 360.5843023255814V360.90552325581393Q83.48502906976745 362.4869186046512 82.79316860465117 363.7718023255814Q82.1013081395349 365.05668604651163 80.86584302325582 365.7856104651163Q79.63037790697675 366.51453488372096 78.04898255813954 366.51453488372096H73.97194767441862V372.0H68.51119186046512V355.0H78.04898255813954Q79.63037790697675 355.0 80.86584302325582 355.72892441860466Q82.1013081395349 356.4578488372093 82.79316860465117 357.73037790697674Q83.48502906976745 359.0029069767442 83.48502906976745 360.5843023255814ZM73.97194767441862 362.5363372093023H76.22049418604652Q77.08531976744186 362.5363372093023 77.51773255813953 362.09156976744185Q77.95014534883721 361.6468023255814 77.95014534883721 360.88081395348837V360.6831395348837Q77.95014534883721 359.8924418604651 77.51773255813953 359.4600290697674Q77.08531976744186 359.0276162790698 76.22049418604652 359.0276162790698H73.97194767441862ZM100.45741279069767 372.0 99.74084302325582 369.6031976744186H93.78590116279071L93.06933139534884 372.0H87.48502906976745L93.68706395348838 355.0H100.0373546511628L106.23938953488373 372.0ZM94.92252906976745 365.79796511627904H98.60421511627908L96.82514534883721 359.74418604651163H96.7263081395349ZM118.71468023255815 372.29651162790697Q114.6623546511628 372.29651162790697 112.45087209302326 370.46802325581393Q110.23938953488373 368.63953488372096 110.23938953488373 365.15552325581393V355.0H115.70014534883722V365.0813953488372Q115.70014534883722 366.51453488372096 116.46613372093024 367.3670058139535Q117.23212209302326 368.21947674418607 118.68997093023256 368.21947674418607Q120.14781976744187 368.21947674418607 120.92616279069769 367.3546511627907Q121.7045058139535 366.48982558139534 121.7045058139535 365.0813953488372V355.0H127.16526162790699V365.15552325581393Q127.16526162790699 368.63953488372096 124.96613372093024 370.46802325581393Q122.7670058139535 372.29651162790697 118.71468023255815 372.29651162790697ZM131.16526162790697 355.0H136.62601744186045V367.6511627906977H145.34840116279068V372.0H131.16526162790697ZM171.42078488372093 372.0 170.70421511627907 369.6031976744186H164.74927325581396L164.0327034883721 372.0H158.4484011627907L164.65043604651163 355.0H171.00072674418604L177.20276162790697 372.0ZM165.8859011627907 365.79796511627904H169.56758720930233L167.78851744186048 359.74418604651163H167.68968023255815ZM181.20276162790697 355.0H186.66351744186045V367.6511627906977H195.38590116279067V372.0H181.20276162790697ZM199.38590116279067 355.0H214.0879360465116V359.07703488372096H204.84665697674416V361.4244186046512H212.7536337209302V365.32848837209303H204.84665697674416V367.92296511627904H214.26090116279067V372.0H199.38590116279067ZM237.38590116279067 372.0H230.76380813953486L227.625726744186 366.71220930232556H227.52688953488368L224.38880813953486 372.0H218.26090116279067L224.33938953488368 363.00581395348837L218.85392441860463 355.0H225.45130813953486L228.0210755813953 359.3488372093023H228.11991279069764L230.71438953488368 355.0H236.8175872093023L231.30741279069764 363.03052325581393ZM254.3582848837209 372.0 253.64171511627904 369.6031976744186H247.68677325581393L246.97020348837208 372.0H241.38590116279067L247.5879360465116 355.0H253.938226744186L260.14026162790697 372.0ZM248.82340116279067 365.79796511627904H252.5050872093023L250.72601744186045 359.74418604651163H250.62718023255812ZM276.297238372093 372.0 269.15625 363.74709302325584V372.0H264.14026162790697V355.0H268.90915697674416L276.0501453488372 363.3764534883721V355.0H281.0661337209302V372.0ZM301.34956395348837 363.5Q301.34956395348837 372.0 292.4295058139535 372.0H285.0661337209302V355.0H292.4295058139535Q301.34956395348837 355.0 301.34956395348837 363.5ZM290.5268895348837 367.92296511627904H292.3306686046511Q295.76526162790697 367.92296511627904 295.76526162790697 364.2412790697674V362.7587209302326Q295.76526162790697 359.07703488372096 292.3306686046511 359.07703488372096H290.5268895348837ZM305.34956395348837 355.0H320.05159883720927V359.07703488372096H310.81031976744185V361.4244186046512H318.7172965116279V365.32848837209303H310.81031976744185V367.92296511627904H320.22456395348837V372.0H305.34956395348837ZM337.0734011627907 364.8837209302326 340.85392441860466 372.0H334.72601744186045L331.71148255813955 365.79796511627904H329.68531976744185V372.0H324.22456395348837V355.0H334.62718023255815Q336.4556686046511 355.0 337.75290697674416 355.7042151162791Q339.0501453488372 356.40843023255815 339.7049418604651 357.6068313953489Q340.35973837209303 358.80523255813955 340.35973837209303 360.2136627906977Q340.35973837209303 361.7703488372093 339.51962209302326 363.03052325581393Q338.6795058139535 364.2906976744186 337.0734011627907 364.8837209302326ZM333.2681686046511 358.8793604651163H329.68531976744185V362.0174418604651H333.2681686046511Q333.9106104651163 362.0174418604651 334.35537790697674 361.56031976744185Q334.8001453488372 361.1031976744186 334.8001453488372 360.4360465116279Q334.8001453488372 359.7688953488372 334.35537790697674 359.32412790697674Q333.9106104651163 358.8793604651163 333.2681686046511 358.8793604651163ZM372.31293604651165 363.5Q372.31293604651165 367.7994186046512 369.91613372093025 370.0479651162791Q367.51933139534884 372.29651162790697 363.12107558139536 372.29651162790697Q358.7228197674419 372.29651162790697 356.3383720930233 370.06031976744185Q353.9539244186047 367.82412790697674 353.9539244186047 363.5Q353.9539244186047 359.17587209302326 356.3383720930233 356.93968023255815Q358.7228197674419 354.70348837209303 363.12107558139536 354.70348837209303Q367.51933139534884 354.70348837209303 369.91613372093025 356.9520348837209Q372.31293604651165 359.2005813953488 372.31293604651165 363.5ZM359.5382267441861 362.7093023255814V364.2906976744186Q359.5382267441861 366.09447674418607 360.4524709302326 367.15697674418607Q361.36671511627907 368.21947674418607 363.12107558139536 368.21947674418607Q364.87543604651165 368.21947674418607 365.8020348837209 367.15697674418607Q366.72863372093025 366.09447674418607 366.72863372093025 364.2906976744186V362.7093023255814Q366.72863372093025 360.90552325581393 365.8020348837209 359.84302325581393Q364.87543604651165 358.78052325581393 363.12107558139536 358.78052325581393Q361.36671511627907 358.78052325581393 360.4524709302326 359.84302325581393Q359.5382267441861 360.90552325581393 359.5382267441861 362.7093023255814ZM389.16177325581396 364.8837209302326 392.94229651162794 372.0H386.81438953488373L383.79985465116283 365.79796511627904H381.77369186046514V372.0H376.31293604651165V355.0H386.7155523255814Q388.5440406976744 355.0 389.84127906976744 355.7042151162791Q391.1385174418605 356.40843023255815 391.7933139534884 357.6068313953489Q392.4481104651163 358.80523255813955 392.4481104651163 360.2136627906977Q392.4481104651163 361.7703488372093 391.60799418604654 363.03052325581393Q390.76787790697676 364.2906976744186 389.16177325581396 364.8837209302326ZM385.3565406976744 358.8793604651163H381.77369186046514V362.0174418604651H385.3565406976744Q385.9989825581396 362.0174418604651 386.44375 361.56031976744185Q386.8885174418605 361.1031976744186 386.8885174418605 360.4360465116279Q386.8885174418605 359.7688953488372 386.44375 359.32412790697674Q385.9989825581396 358.8793604651163 385.3565406976744 358.8793604651163ZM407.98735465116283 359.3488372093023V372.0H402.52659883720935V359.3488372093023H396.94229651162794V355.0H413.5469476744186V359.3488372093023ZM417.5469476744186 372.0V355.0H423.0077034883721V372.0ZM435.4088662790698 367.92296511627904H443.4888081395349V372.0H427.0077034883721V370.2456395348837L434.8899709302326 359.07703488372096H427.6007267441861V355.0H443.29113372093025V356.7543604651163Z" fill="#4A1C22"></path></svg>
